<mxfile host="app.diagrams.net" agent="Mozilla/5.0 (Windows NT 10.0; Win64; x64) AppleWebKit/537.36 (KHTML, like Gecko) Chrome/131.0.0.0 Safari/537.36" version="25.0.3">
  <diagram name="Страница — 1" id="IHK5FIiIGfOIRxj91h0W">
    <mxGraphModel dx="463" dy="-604" grid="1" gridSize="10" guides="1" tooltips="1" connect="1" arrows="1" fold="1" page="1" pageScale="1" pageWidth="827" pageHeight="1169" math="0" shadow="0">
      <root>
        <mxCell id="0" />
        <mxCell id="1" parent="0" />
        <mxCell id="31CwEy47tp6yuinS11nH-53" value="&lt;font style=&quot;font-size: 18px;&quot;&gt;Psychologists&lt;/font&gt;" style="swimlane;fontStyle=0;childLayout=stackLayout;horizontal=1;startSize=30;horizontalStack=0;resizeParent=1;resizeParentMax=0;resizeLast=0;collapsible=1;marginBottom=0;whiteSpace=wrap;html=1;" parent="1" vertex="1">
          <mxGeometry x="1690" y="1550" width="250" height="180" as="geometry" />
        </mxCell>
        <mxCell id="31CwEy47tp6yuinS11nH-54" value="&lt;font style=&quot;font-size: 18px;&quot;&gt;&lt;span style=&quot;text-align: center;&quot;&gt;- id (PK)&lt;/span&gt;&lt;br style=&quot;text-align: center;&quot;&gt;&lt;span style=&quot;text-align: center;&quot;&gt;- psiholog_name&lt;/span&gt;&lt;br style=&quot;text-align: center;&quot;&gt;&lt;span style=&quot;text-align: center;&quot;&gt;- specialization&lt;/span&gt;&lt;br style=&quot;text-align: center;&quot;&gt;&lt;span style=&quot;text-align: center;&quot;&gt;- contact_mail (Unique)&lt;/span&gt;&lt;/font&gt;" style="text;strokeColor=none;fillColor=none;align=left;verticalAlign=middle;spacingLeft=4;spacingRight=4;overflow=hidden;points=[[0,0.5],[1,0.5]];portConstraint=eastwest;rotatable=0;whiteSpace=wrap;html=1;fontSize=18;" parent="31CwEy47tp6yuinS11nH-53" vertex="1">
          <mxGeometry y="30" width="250" height="150" as="geometry" />
        </mxCell>
        <mxCell id="31CwEy47tp6yuinS11nH-55" value="&lt;font style=&quot;font-size: 18px;&quot;&gt;AvailableSlots&lt;/font&gt;" style="swimlane;fontStyle=0;childLayout=stackLayout;horizontal=1;startSize=30;horizontalStack=0;resizeParent=1;resizeParentMax=0;resizeLast=0;collapsible=1;marginBottom=0;whiteSpace=wrap;html=1;" parent="1" vertex="1">
          <mxGeometry x="2080" y="1820" width="220" height="140" as="geometry">
            <mxRectangle x="2006" y="1520" width="90" height="40" as="alternateBounds" />
          </mxGeometry>
        </mxCell>
        <mxCell id="31CwEy47tp6yuinS11nH-56" value="&lt;font style=&quot;font-size: 18px;&quot;&gt;&lt;span style=&quot;text-align: center;&quot;&gt;- id (PK)&lt;/span&gt;&lt;br style=&quot;text-align: center;&quot;&gt;&lt;span style=&quot;text-align: center;&quot;&gt;- psychologist_id (FK)&lt;/span&gt;&lt;br style=&quot;text-align: center;&quot;&gt;&lt;span style=&quot;text-align: center;&quot;&gt;- slot_time&lt;/span&gt;&lt;br style=&quot;text-align: center;&quot;&gt;&lt;span style=&quot;text-align: center;&quot;&gt;- is_available (Default TRUE)&lt;/span&gt;&lt;/font&gt;" style="text;strokeColor=none;fillColor=none;align=left;verticalAlign=middle;spacingLeft=4;spacingRight=4;overflow=hidden;points=[[0,0.5],[1,0.5]];portConstraint=eastwest;rotatable=0;whiteSpace=wrap;html=1;fontSize=18;" parent="31CwEy47tp6yuinS11nH-55" vertex="1">
          <mxGeometry y="30" width="220" height="110" as="geometry" />
        </mxCell>
        <mxCell id="31CwEy47tp6yuinS11nH-57" value="&lt;font style=&quot;font-size: 18px;&quot;&gt;Clients&lt;/font&gt;" style="swimlane;fontStyle=0;childLayout=stackLayout;horizontal=1;startSize=30;horizontalStack=0;resizeParent=1;resizeParentMax=0;resizeLast=0;collapsible=1;marginBottom=0;whiteSpace=wrap;html=1;" parent="1" vertex="1">
          <mxGeometry x="2100" y="1260" width="220" height="150" as="geometry" />
        </mxCell>
        <mxCell id="31CwEy47tp6yuinS11nH-58" value="&lt;div&gt;&lt;div style=&quot;&quot;&gt;&lt;font style=&quot;font-size: 18px;&quot;&gt;&lt;span style=&quot;text-align: center;&quot;&gt;- id (PK)&lt;/span&gt;&lt;br style=&quot;text-align: center;&quot;&gt;&lt;span style=&quot;text-align: center;&quot;&gt;- user_name&lt;/span&gt;&lt;br style=&quot;text-align: center;&quot;&gt;&lt;span style=&quot;text-align: center;&quot;&gt;- email (Unique)&lt;/span&gt;&lt;br style=&quot;text-align: center;&quot;&gt;&lt;span style=&quot;text-align: center;&quot;&gt;- phone&lt;/span&gt;&lt;br style=&quot;text-align: center;&quot;&gt;&lt;span style=&quot;text-align: center;&quot;&gt;- child_age&lt;/span&gt;&lt;/font&gt;&lt;/div&gt;&lt;/div&gt;" style="text;strokeColor=none;fillColor=none;align=left;verticalAlign=middle;spacingLeft=4;spacingRight=4;overflow=hidden;points=[[0,0.5],[1,0.5]];portConstraint=eastwest;rotatable=0;whiteSpace=wrap;html=1;fontSize=18;" parent="31CwEy47tp6yuinS11nH-57" vertex="1">
          <mxGeometry y="30" width="220" height="120" as="geometry" />
        </mxCell>
        <mxCell id="31CwEy47tp6yuinS11nH-59" value="&lt;span style=&quot;font-size: 18px;&quot;&gt;BookedClients&lt;/span&gt;" style="swimlane;fontStyle=0;childLayout=stackLayout;horizontal=1;startSize=30;horizontalStack=0;resizeParent=1;resizeParentMax=0;resizeLast=0;collapsible=1;marginBottom=0;whiteSpace=wrap;html=1;" parent="1" vertex="1">
          <mxGeometry x="2240" y="1550" width="230" height="140" as="geometry" />
        </mxCell>
        <mxCell id="31CwEy47tp6yuinS11nH-60" value="&lt;div&gt;&lt;font style=&quot;font-size: 18px;&quot;&gt;&lt;span style=&quot;text-align: center;&quot;&gt;- id (PK)&lt;/span&gt;&lt;br style=&quot;text-align: center;&quot;&gt;&lt;span style=&quot;text-align: center;&quot;&gt;- slot_id (FK, Unique)&lt;/span&gt;&lt;br style=&quot;text-align: center;&quot;&gt;&lt;span style=&quot;text-align: center;&quot;&gt;- client_id (FK, Unique)&lt;/span&gt;&lt;/font&gt;&lt;/div&gt;" style="text;strokeColor=none;fillColor=none;align=left;verticalAlign=middle;spacingLeft=4;spacingRight=4;overflow=hidden;points=[[0,0.5],[1,0.5]];portConstraint=eastwest;rotatable=0;whiteSpace=wrap;html=1;fontSize=18;" parent="31CwEy47tp6yuinS11nH-59" vertex="1">
          <mxGeometry y="30" width="230" height="110" as="geometry" />
        </mxCell>
        <mxCell id="31CwEy47tp6yuinS11nH-64" style="edgeStyle=orthogonalEdgeStyle;rounded=0;orthogonalLoop=1;jettySize=auto;html=1;endArrow=ERone;endFill=0;startArrow=ERone;startFill=0;strokeWidth=3;exitX=1;exitY=0.5;exitDx=0;exitDy=0;" parent="1" edge="1">
          <mxGeometry relative="1" as="geometry">
            <mxPoint x="2245" y="2340" as="sourcePoint" />
            <mxPoint x="1910" y="2541" as="targetPoint" />
            <Array as="points">
              <mxPoint x="2265" y="2340" />
              <mxPoint x="2265" y="2481" />
              <mxPoint x="1910" y="2481" />
            </Array>
          </mxGeometry>
        </mxCell>
        <mxCell id="t54TOeEiteNcj-vbZ9f8-12" value="&lt;font style=&quot;font-size: 18px;&quot;&gt;WaitingList&lt;/font&gt;" style="swimlane;fontStyle=0;childLayout=stackLayout;horizontal=1;startSize=30;horizontalStack=0;resizeParent=1;resizeParentMax=0;resizeLast=0;collapsible=1;marginBottom=0;whiteSpace=wrap;html=1;" parent="1" vertex="1">
          <mxGeometry x="1654" y="1250" width="220" height="140" as="geometry">
            <mxRectangle x="2006" y="1520" width="90" height="40" as="alternateBounds" />
          </mxGeometry>
        </mxCell>
        <mxCell id="t54TOeEiteNcj-vbZ9f8-13" value="&lt;font style=&quot;font-size: 18px;&quot;&gt;&lt;span style=&quot;text-align: center;&quot;&gt;-&lt;/span&gt;&lt;font style=&quot;&quot;&gt;&lt;span style=&quot;text-align: center;&quot;&gt; id (PK)&lt;/span&gt;&lt;br style=&quot;text-align: center;&quot;&gt;&lt;span style=&quot;text-align: center;&quot;&gt;- client_id (FK, Unique)&lt;/span&gt;&lt;br style=&quot;text-align: center;&quot;&gt;&lt;span style=&quot;text-align: center;&quot;&gt;- psychologist_id (FK)&lt;/span&gt;&lt;/font&gt;&lt;/font&gt;" style="text;strokeColor=none;fillColor=none;align=left;verticalAlign=middle;spacingLeft=4;spacingRight=4;overflow=hidden;points=[[0,0.5],[1,0.5]];portConstraint=eastwest;rotatable=0;whiteSpace=wrap;html=1;fontSize=18;" parent="t54TOeEiteNcj-vbZ9f8-12" vertex="1">
          <mxGeometry y="30" width="220" height="110" as="geometry" />
        </mxCell>
        <mxCell id="zd09A6Fly7xtId2lwKCd-3" style="edgeStyle=orthogonalEdgeStyle;rounded=0;orthogonalLoop=1;jettySize=auto;html=1;endArrow=ERzeroToMany;endFill=0;startArrow=ERone;startFill=0;strokeWidth=3;exitX=-0.004;exitY=0.269;exitDx=0;exitDy=0;exitPerimeter=0;" edge="1" parent="1" source="31CwEy47tp6yuinS11nH-54" target="t54TOeEiteNcj-vbZ9f8-13">
          <mxGeometry relative="1" as="geometry">
            <mxPoint x="1690" y="1601.45" as="sourcePoint" />
            <mxPoint x="1881.1" y="1370.0100000000002" as="targetPoint" />
            <Array as="points">
              <mxPoint x="1640" y="1620" />
              <mxPoint x="1640" y="1474" />
              <mxPoint x="1920" y="1474" />
              <mxPoint x="1920" y="1350" />
            </Array>
          </mxGeometry>
        </mxCell>
        <mxCell id="zd09A6Fly7xtId2lwKCd-4" style="edgeStyle=orthogonalEdgeStyle;rounded=0;orthogonalLoop=1;jettySize=auto;html=1;entryX=-0.006;entryY=0.116;entryDx=0;entryDy=0;endArrow=ERzeroToMany;endFill=0;startArrow=ERone;startFill=0;exitX=1.004;exitY=0.296;exitDx=0;exitDy=0;strokeWidth=3;entryPerimeter=0;exitPerimeter=0;" edge="1" parent="1" source="31CwEy47tp6yuinS11nH-54" target="31CwEy47tp6yuinS11nH-56">
          <mxGeometry relative="1" as="geometry">
            <mxPoint x="1654" y="1695" as="sourcePoint" />
            <mxPoint x="1844" y="1690" as="targetPoint" />
          </mxGeometry>
        </mxCell>
        <mxCell id="zd09A6Fly7xtId2lwKCd-5" style="edgeStyle=orthogonalEdgeStyle;rounded=0;orthogonalLoop=1;jettySize=auto;html=1;endArrow=ERone;endFill=0;startArrow=ERone;startFill=0;strokeWidth=3;entryX=0.001;entryY=0.331;entryDx=0;entryDy=0;entryPerimeter=0;" edge="1" parent="1" target="31CwEy47tp6yuinS11nH-60">
          <mxGeometry relative="1" as="geometry">
            <mxPoint x="2320" y="1308" as="sourcePoint" />
            <mxPoint x="2190" y="1520" as="targetPoint" />
            <Array as="points">
              <mxPoint x="2355" y="1308" />
              <mxPoint x="2355" y="1450" />
              <mxPoint x="2190" y="1450" />
              <mxPoint x="2190" y="1616" />
            </Array>
          </mxGeometry>
        </mxCell>
        <mxCell id="zd09A6Fly7xtId2lwKCd-9" style="edgeStyle=orthogonalEdgeStyle;rounded=0;orthogonalLoop=1;jettySize=auto;html=1;endArrow=ERone;endFill=0;startArrow=ERone;startFill=0;strokeWidth=3;entryX=0.994;entryY=0.116;entryDx=0;entryDy=0;entryPerimeter=0;" edge="1" parent="1" target="31CwEy47tp6yuinS11nH-56">
          <mxGeometry relative="1" as="geometry">
            <mxPoint x="2470" y="1609" as="sourcePoint" />
            <mxPoint x="2622" y="1898" as="targetPoint" />
            <Array as="points">
              <mxPoint x="2510" y="1609" />
              <mxPoint x="2510" y="1790" />
              <mxPoint x="2400" y="1790" />
              <mxPoint x="2400" y="1863" />
            </Array>
          </mxGeometry>
        </mxCell>
        <mxCell id="zd09A6Fly7xtId2lwKCd-11" style="edgeStyle=orthogonalEdgeStyle;rounded=0;orthogonalLoop=1;jettySize=auto;html=1;endArrow=ERone;endFill=0;startArrow=ERone;startFill=0;strokeWidth=3;" edge="1" parent="1" source="t54TOeEiteNcj-vbZ9f8-13">
          <mxGeometry relative="1" as="geometry">
            <mxPoint x="1910" y="1310" as="sourcePoint" />
            <mxPoint x="2100" y="1310" as="targetPoint" />
            <Array as="points">
              <mxPoint x="1930" y="1310" />
              <mxPoint x="1930" y="1310" />
            </Array>
          </mxGeometry>
        </mxCell>
      </root>
    </mxGraphModel>
  </diagram>
</mxfile>
